<svg version="1.1" xmlns="http://www.w3.org/2000/svg" viewBox="0 0 502 984.9459067695744" width="502" height="984.9459067695744">
  <!-- svg-source:excalidraw -->
  
  <defs>
    <style class="style-fonts">
      @font-face {
        font-family: "Virgil";
        src: url("https://excalidraw.com/Virgil.woff2");
      }
      @font-face {
        font-family: "Cascadia";
        src: url("https://excalidraw.com/Cascadia.woff2");
      }
    </style>
  </defs>
  <rect x="0" y="0" width="502" height="984.9459067695744" fill="#ffffff"></rect><g stroke-linecap="round" transform="translate(10 88.27930134818462) rotate(0 241 125)"><path d="M32 0 L450 0 L457.5 0.5 L464 2 L469.5 4.5 L474 8 L477.5 12.5 L480 18 L481.5 24.5 L482 32 L482 218 L481.5 225.5 L480 232 L477.5 237.5 L474 242 L469.5 245.5 L464 248 L457.5 249.5 L450 250 L32 250 L24.5 249.5 L18 248 L12.5 245.5 L8 242 L4.5 237.5 L2 232 L0.5 225.5 L0 218 L0.5 24.5 L2 18 L4.5 12.5 L8 8 L12.5 4.5 L18 2 L24.5 0.5 L32 0" stroke="none" stroke-width="0" fill="#ced4da"></path><path d="M32 0 M32 0 C143.54 0, 255.08 0, 450 0 M450 0 C471.33 0, 482 10.67, 482 32 M482 32 C482 99.53, 482 167.07, 482 218 M482 218 C482 239.33, 471.33 250, 450 250 M450 250 C322.19 250, 194.38 250, 32 250 M32 250 C10.67 250, 0 239.33, 0 218 M0 218 C0 163.89, 0 109.78, 0 32 M0 32 C0 10.67, 10.67 0, 32 0" stroke="#000000" stroke-width="1.5" fill="none" stroke-dasharray="8 9"></path></g><g transform="translate(171.5 200.77930134818462) rotate(0 79.5 12.5)"><text x="79.5" y="18" font-family="Virgil, Segoe UI Emoji" font-size="20px" fill="#000000" text-anchor="middle" style="white-space: pre;" direction="ltr">Bloggable Ideas</text></g><g stroke-linecap="round"><g transform="translate(256.87417182772856 435.5209383231787) rotate(0 -0.1906374610656485 15.823233272039374)"><path d="M0 0 C-0.06 5.27, -0.32 26.37, -0.38 31.65 M0 0 C-0.06 5.27, -0.32 26.37, -0.38 31.65" stroke="#000000" stroke-width="1" fill="none"></path></g><g transform="translate(256.87417182772856 435.5209383231787) rotate(0 -0.1906374610656485 15.823233272039374)"><path d="M-5.61 16.71 C-4.36 20.29, -3.11 23.87, -0.38 31.65 M-5.61 16.71 C-3.84 21.77, -2.07 26.83, -0.38 31.65" stroke="#000000" stroke-width="1" fill="none"></path></g><g transform="translate(256.87417182772856 435.5209383231787) rotate(0 -0.1906374610656485 15.823233272039374)"><path d="M5.21 16.84 C3.87 20.39, 2.53 23.94, -0.38 31.65 M5.21 16.84 C3.32 21.86, 1.42 26.87, -0.38 31.65" stroke="#000000" stroke-width="1" fill="none"></path></g></g><mask></mask><g stroke-linecap="round" transform="translate(118.75652700052296 573.4568298067579) rotate(0 143.5 29.5)"><path d="M14.75 0 L275.71 0.23 L281.24 2.07 L283.31 3.69 L286.08 8.3 L287 14.75 L286.77 47.71 L286.08 50.7 L283.31 55.31 L278.7 58.08 L272.25 59 L11.29 58.77 L5.76 56.93 L2.07 53.24 L0.92 50.7 L0 44.25 L0 14.75 L0.92 8.3 L3.69 3.69 L8.3 0.92 L14.75 0" stroke="none" stroke-width="0" fill="#40c057"></path><path d="M14.75 0 M14.75 0 C117.01 0, 219.27 0, 272.25 0 M14.75 0 C98.67 0, 182.59 0, 272.25 0 M272.25 0 C282.08 0, 287 4.92, 287 14.75 M272.25 0 C282.08 0, 287 4.92, 287 14.75 M287 14.75 C287 23.22, 287 31.68, 287 44.25 M287 14.75 C287 22.38, 287 30.01, 287 44.25 M287 44.25 C287 54.08, 282.08 59, 272.25 59 M287 44.25 C287 54.08, 282.08 59, 272.25 59 M272.25 59 C207.74 59, 143.22 59, 14.75 59 M272.25 59 C213.42 59, 154.58 59, 14.75 59 M14.75 59 C4.92 59, 0 54.08, 0 44.25 M14.75 59 C4.92 59, 0 54.08, 0 44.25 M0 44.25 C0 37.39, 0 30.53, 0 14.75 M0 44.25 C0 33.13, 0 22.01, 0 14.75 M0 14.75 C0 4.92, 4.92 0, 14.75 0 M0 14.75 C0 4.92, 4.92 0, 14.75 0" stroke="#000000" stroke-width="1" fill="none"></path></g><g transform="translate(217.25652700052296 590.4568298067579) rotate(0 45 12.5)"><text x="45" y="18" font-family="Virgil, Segoe UI Emoji" font-size="20px" fill="#000000" text-anchor="middle" style="white-space: pre;" direction="ltr">Valuable?</text></g><g stroke-linecap="round"><g transform="translate(260.87198351803227 638.2261644415053) rotate(0 0.1176512219194592 14.431117313810972)"><path d="M0 0 C0.04 4.81, 0.2 24.05, 0.24 28.86 M0 0 C0.04 4.81, 0.2 24.05, 0.24 28.86" stroke="#000000" stroke-width="1" fill="none"></path></g><g transform="translate(260.87198351803227 638.2261644415053) rotate(0 0.1176512219194592 14.431117313810972)"><path d="M-4.81 15.34 C-3.54 18.75, -2.27 22.15, 0.24 28.86 M-4.81 15.34 C-2.89 20.5, -0.96 25.65, 0.24 28.86" stroke="#000000" stroke-width="1" fill="none"></path></g><g transform="translate(260.87198351803227 638.2261644415053) rotate(0 0.1176512219194592 14.431117313810972)"><path d="M5.06 15.26 C3.85 18.69, 2.63 22.11, 0.24 28.86 M5.06 15.26 C3.22 20.45, 1.38 25.63, 0.24 28.86" stroke="#000000" stroke-width="1" fill="none"></path></g></g><mask></mask><g stroke-linecap="round" transform="translate(145.34296827594994 675.2536287736085) rotate(0 116.5 29.5)"><path d="M14.75 0 L221.71 0.23 L227.24 2.07 L229.31 3.69 L232.08 8.3 L233 14.75 L232.77 47.71 L232.08 50.7 L229.31 55.31 L224.7 58.08 L218.25 59 L11.29 58.77 L5.76 56.93 L2.07 53.24 L0.92 50.7 L0 44.25 L0 14.75 L0.92 8.3 L3.69 3.69 L8.3 0.92 L14.75 0" stroke="none" stroke-width="0" fill="#40c057"></path><path d="M14.75 0 M14.75 0 C81.05 0, 147.35 0, 218.25 0 M14.75 0 C63.02 0, 111.28 0, 218.25 0 M218.25 0 C228.08 0, 233 4.92, 233 14.75 M218.25 0 C228.08 0, 233 4.92, 233 14.75 M233 14.75 C233 25.17, 233 35.59, 233 44.25 M233 14.75 C233 23.44, 233 32.14, 233 44.25 M233 44.25 C233 54.08, 228.08 59, 218.25 59 M233 44.25 C233 54.08, 228.08 59, 218.25 59 M218.25 59 C140.88 59, 63.51 59, 14.75 59 M218.25 59 C138.06 59, 57.87 59, 14.75 59 M14.75 59 C4.92 59, 0 54.08, 0 44.25 M14.75 59 C4.92 59, 0 54.08, 0 44.25 M0 44.25 C0 33.83, 0 23.41, 0 14.75 M0 44.25 C0 34.52, 0 24.79, 0 14.75 M0 14.75 C0 4.92, 4.92 0, 14.75 0 M0 14.75 C0 4.92, 4.92 0, 14.75 0" stroke="#000000" stroke-width="1" fill="none"></path></g><g transform="translate(225.84296827594994 692.2536287736085) rotate(0 36 12.5)"><text x="36" y="18" font-family="Virgil, Segoe UI Emoji" font-size="20px" fill="#000000" text-anchor="middle" style="white-space: pre;" direction="ltr">! Exists?</text></g><g stroke-linecap="round"><g transform="translate(262.81884296504836 736.6276077594628) rotate(0 0.5610068687175271 15.565690276224444)"><path d="M0 0 C0.19 5.19, 0.94 25.94, 1.12 31.13 M0 0 C0.19 5.19, 0.94 25.94, 1.12 31.13" stroke="#000000" stroke-width="1" fill="none"></path></g><g transform="translate(262.81884296504836 736.6276077594628) rotate(0 0.5610068687175271 15.565690276224444)"><path d="M-4.73 16.7 C-2.64 21.86, -0.55 27.01, 1.12 31.13 M-4.73 16.7 C-3.06 20.81, -1.39 24.93, 1.12 31.13" stroke="#000000" stroke-width="1" fill="none"></path></g><g transform="translate(262.81884296504836 736.6276077594628) rotate(0 0.5610068687175271 15.565690276224444)"><path d="M5.92 16.31 C4.2 21.61, 2.49 26.9, 1.12 31.13 M5.92 16.31 C4.55 20.54, 3.18 24.76, 1.12 31.13" stroke="#000000" stroke-width="1" fill="none"></path></g></g><mask></mask><g stroke-linecap="round" transform="translate(166.94294386188744 773.579790028956) rotate(0 95.5 30)"><path d="M15 0 L176 0 L182.56 0.94 L187.25 3.75 L188.89 5.86 L190.77 11.48 L191 45 L190.06 51.56 L188.89 54.14 L185.14 57.89 L182.56 59.06 L176 60 L15 60 L8.44 59.06 L3.75 56.25 L2.11 54.14 L0.23 48.52 L0.23 11.48 L2.11 5.86 L3.75 3.75 L8.44 0.94 L15 0" stroke="none" stroke-width="0" fill="#fab005"></path><path d="M15 0 M15 0 C53.19 0, 91.37 0, 176 0 M15 0 C78.22 0, 141.44 0, 176 0 M176 0 C186 0, 191 5, 191 15 M176 0 C186 0, 191 5, 191 15 M191 15 C191 23.84, 191 32.68, 191 45 M191 15 C191 21.13, 191 27.27, 191 45 M191 45 C191 55, 186 60, 176 60 M191 45 C191 55, 186 60, 176 60 M176 60 C112.56 60, 49.12 60, 15 60 M176 60 C143.36 60, 110.73 60, 15 60 M15 60 C5 60, 0 55, 0 45 M15 60 C5 60, 0 55, 0 45 M0 45 C0 35.11, 0 25.21, 0 15 M0 45 C0 37.23, 0 29.46, 0 15 M0 15 C0 5, 5 0, 15 0 M0 15 C0 5, 5 0, 15 0" stroke="#000000" stroke-width="1" fill="none"></path></g><g transform="translate(235.94294386188744 791.079790028956) rotate(0 26.5 12.5)"><text x="26.5" y="18" font-family="Virgil, Segoe UI Emoji" font-size="20px" fill="#000000" text-anchor="middle" style="white-space: pre;" direction="ltr">Post!</text></g><g stroke-linecap="round"><g transform="translate(262.9499030276263 841.9508047858319) rotate(0 -0.33575924210344965 11.030710921415675)"><path d="M0 0 C-0.11 3.68, -0.56 18.38, -0.67 22.06 M0 0 C-0.11 3.68, -0.56 18.38, -0.67 22.06" stroke="#000000" stroke-width="1" fill="none"></path></g><g transform="translate(262.9499030276263 841.9508047858319) rotate(0 -0.33575924210344965 11.030710921415675)"><path d="M-4.13 11.58 C-3.18 14.45, -2.23 17.33, -0.67 22.06 M-4.13 11.58 C-3.2 14.38, -2.28 17.18, -0.67 22.06" stroke="#000000" stroke-width="1" fill="none"></path></g><g transform="translate(262.9499030276263 841.9508047858319) rotate(0 -0.33575924210344965 11.030710921415675)"><path d="M3.42 11.81 C2.3 14.62, 1.18 17.43, -0.67 22.06 M3.42 11.81 C2.32 14.55, 1.23 17.29, -0.67 22.06" stroke="#000000" stroke-width="1" fill="none"></path></g></g><mask></mask><g stroke-linecap="round" transform="translate(211.22335923440892 874.9455958334652) rotate(0 49.20018748881671 50.00015546805463)"><path d="M0 0 L98.4 0 L98.4 100 L0 100" stroke="none" stroke-width="0" fill="#ced4da"></path><path d="M0 0 C21.51 0, 43.02 0, 98.4 0 M0 0 C35.79 0, 71.58 0, 98.4 0 M98.4 0 C98.4 30.08, 98.4 60.17, 98.4 100 M98.4 0 C98.4 32.58, 98.4 65.16, 98.4 100 M98.4 100 C78.03 100, 57.67 100, 0 100 M98.4 100 C63.64 100, 28.89 100, 0 100 M0 100 C0 78.6, 0 57.19, 0 0 M0 100 C0 61.98, 0 23.96, 0 0" stroke="#000000" stroke-width="1" fill="none"></path></g><g transform="translate(328.4959993545833 897.3876589541903) rotate(0 53.5 25)"><text x="0" y="17" font-family="Virgil, Segoe UI Emoji" font-size="20px" fill="#000000" text-anchor="start" style="white-space: pre;" direction="ltr">Blog Post </text><text x="0" y="42" font-family="Virgil, Segoe UI Emoji" font-size="20px" fill="#000000" text-anchor="start" style="white-space: pre;" direction="ltr">Volume</text></g><g stroke-linecap="round" transform="translate(139.1220910196953 10) rotate(0 112 30)"><path d="M15 0 L209 0 L215.56 0.94 L220.25 3.75 L221.89 5.86 L223.77 11.48 L224 45 L223.06 51.56 L221.89 54.14 L218.14 57.89 L215.56 59.06 L209 60 L15 60 L8.44 59.06 L3.75 56.25 L2.11 54.14 L0.23 48.52 L0.23 11.48 L2.11 5.86 L3.75 3.75 L8.44 0.94 L15 0" stroke="none" stroke-width="0" fill="#15aabf"></path><path d="M15 0 M15 0 C58.26 0, 101.52 0, 209 0 M15 0 C66.26 0, 117.51 0, 209 0 M209 0 C219 0, 224 5, 224 15 M209 0 C219 0, 224 5, 224 15 M224 15 C224 23.4, 224 31.8, 224 45 M224 15 C224 25.17, 224 35.33, 224 45 M224 45 C224 55, 219 60, 209 60 M224 45 C224 55, 219 60, 209 60 M209 60 C135.77 60, 62.55 60, 15 60 M209 60 C146.12 60, 83.24 60, 15 60 M15 60 C5 60, 0 55, 0 45 M15 60 C5 60, 0 55, 0 45 M0 45 C0 33.55, 0 22.11, 0 15 M0 45 C0 33.71, 0 22.43, 0 15 M0 15 C0 5, 5 0, 15 0 M0 15 C0 5, 5 0, 15 0" stroke="#000000" stroke-width="1" fill="none"></path></g><g transform="translate(178.1220910196953 27.5) rotate(0 73 12.5)"><text x="73" y="18" font-family="Virgil, Segoe UI Emoji" font-size="20px" fill="#000000" text-anchor="middle" style="white-space: pre;" direction="ltr">Set aside time</text></g><g stroke-linecap="round" transform="translate(61.2851551832041 373.6080907657891) rotate(0 194.5 29.5)"><path d="M14.75 0 L377.71 0.23 L383.24 2.07 L385.31 3.69 L388.08 8.3 L389 14.75 L388.77 47.71 L388.08 50.7 L385.31 55.31 L380.7 58.08 L374.25 59 L11.29 58.77 L5.76 56.93 L2.07 53.24 L0.92 50.7 L0 44.25 L0 14.75 L0.92 8.3 L3.69 3.69 L8.3 0.92 L14.75 0" stroke="none" stroke-width="0" fill="#40c057"></path><path d="M14.75 0 M14.75 0 C149.64 0, 284.53 0, 374.25 0 M14.75 0 C133.7 0, 252.65 0, 374.25 0 M374.25 0 C384.08 0, 389 4.92, 389 14.75 M374.25 0 C384.08 0, 389 4.92, 389 14.75 M389 14.75 C389 21.17, 389 27.59, 389 44.25 M389 14.75 C389 23.24, 389 31.73, 389 44.25 M389 44.25 C389 54.08, 384.08 59, 374.25 59 M389 44.25 C389 54.08, 384.08 59, 374.25 59 M374.25 59 C243.15 59, 112.05 59, 14.75 59 M374.25 59 C266.86 59, 159.48 59, 14.75 59 M14.75 59 C4.92 59, 0 54.08, 0 44.25 M14.75 59 C4.92 59, 0 54.08, 0 44.25 M0 44.25 C0 35.21, 0 26.17, 0 14.75 M0 44.25 C0 37.91, 0 31.58, 0 14.75 M0 14.75 C0 4.92, 4.92 0, 14.75 0 M0 14.75 C0 4.92, 4.92 0, 14.75 0" stroke="#000000" stroke-width="1" fill="none"></path></g><g transform="translate(198.2851551832041 390.6080907657891) rotate(0 57.5 12.5)"><text x="57.5" y="18" font-family="Virgil, Segoe UI Emoji" font-size="20px" fill="#000000" text-anchor="middle" style="white-space: pre;" direction="ltr">Fun for me?</text></g><g stroke-linecap="round"><g transform="translate(254.11633478037106 342.13932909268436) rotate(0 0.16065290581582303 13.045999582524132)"><path d="M0 0 C0.05 4.35, 0.27 21.74, 0.32 26.09 M0 0 C0.05 4.35, 0.27 21.74, 0.32 26.09" stroke="#000000" stroke-width="1" fill="none"></path></g><g transform="translate(254.11633478037106 342.13932909268436) rotate(0 0.16065290581582303 13.045999582524132)"><path d="M-4.29 13.89 C-3.04 17.2, -1.79 20.51, 0.32 26.09 M-4.29 13.89 C-2.67 18.18, -1.05 22.47, 0.32 26.09" stroke="#000000" stroke-width="1" fill="none"></path></g><g transform="translate(254.11633478037106 342.13932909268436) rotate(0 0.16065290581582303 13.045999582524132)"><path d="M4.63 13.78 C3.46 17.12, 2.29 20.46, 0.32 26.09 M4.63 13.78 C3.12 18.11, 1.6 22.43, 0.32 26.09" stroke="#000000" stroke-width="1" fill="none"></path></g></g><mask></mask><g stroke-linecap="round" transform="translate(98.87830825650417 470.80128956518513) rotate(0 163.5 30)"><path d="M15 0 L315.52 0.23 L318.56 0.94 L323.25 3.75 L326.06 8.44 L327 15 L326.77 48.52 L326.06 51.56 L323.25 56.25 L318.56 59.06 L312 60 L11.48 59.77 L5.86 57.89 L3.75 56.25 L0.94 51.56 L0 45 L0 15 L0.94 8.44 L3.75 3.75 L8.44 0.94 L15 0" stroke="none" stroke-width="0" fill="#be4bdb"></path><path d="M15 0 M15 0 C129.48 0, 243.95 0, 312 0 M15 0 C104.36 0, 193.71 0, 312 0 M312 0 C322 0, 327 5, 327 15 M312 0 C322 0, 327 5, 327 15 M327 15 C327 23.87, 327 32.73, 327 45 M327 15 C327 22.54, 327 30.08, 327 45 M327 45 C327 55, 322 60, 312 60 M327 45 C327 55, 322 60, 312 60 M312 60 C204.35 60, 96.71 60, 15 60 M312 60 C200.7 60, 89.4 60, 15 60 M15 60 C5 60, 0 55, 0 45 M15 60 C5 60, 0 55, 0 45 M0 45 C0 33.8, 0 22.6, 0 15 M0 45 C0 37.55, 0 30.1, 0 15 M0 15 C0 5, 5 0, 15 0 M0 15 C0 5, 5 0, 15 0" stroke="#000000" stroke-width="1" fill="none"></path></g><g transform="translate(233.87830825650417 488.30128956518513) rotate(0 28.5 12.5)"><text x="28.5" y="18" font-family="Virgil, Segoe UI Emoji" font-size="20px" fill="#000000" text-anchor="middle" style="white-space: pre;" direction="ltr">Write!</text></g><g stroke-linecap="round"><g transform="translate(261.18629600759346 536.8873046057162) rotate(0 -0.2307423545067877 15.463593923493988)"><path d="M0 0 C-0.08 5.15, -0.38 25.77, -0.46 30.93 M0 0 C-0.08 5.15, -0.38 25.77, -0.46 30.93" stroke="#000000" stroke-width="1" fill="none"></path></g><g transform="translate(261.18629600759346 536.8873046057162) rotate(0 -0.2307423545067877 15.463593923493988)"><path d="M-5.53 16.32 C-4.11 20.4, -2.7 24.49, -0.46 30.93 M-5.53 16.32 C-3.53 22.09, -1.52 27.87, -0.46 30.93" stroke="#000000" stroke-width="1" fill="none"></path></g><g transform="translate(261.18629600759346 536.8873046057162) rotate(0 -0.2307423545067877 15.463593923493988)"><path d="M5.04 16.48 C3.5 20.52, 1.96 24.56, -0.46 30.93 M5.04 16.48 C2.87 22.19, 0.69 27.9, -0.46 30.93" stroke="#000000" stroke-width="1" fill="none"></path></g></g><mask></mask></svg>