<svg version="1.1" xmlns="http://www.w3.org/2000/svg" viewBox="0 0 501.5999755859375 657.5000610351562" width="501.5999755859375" height="657.5000610351562">
  <!-- svg-source:excalidraw -->
  
  <defs>
    <style class="style-fonts">
      @font-face {
        font-family: "Virgil";
        src: url("https://excalidraw.com/Virgil.woff2");
      }
      @font-face {
        font-family: "Cascadia";
        src: url("https://excalidraw.com/Cascadia.woff2");
      }
    </style>
  </defs>
  <rect x="0" y="0" width="501.5999755859375" height="657.5000610351562" fill="#ffffff"></rect><g stroke-linecap="round" transform="translate(10 10) rotate(0 240.79998779296875 92.39999389648438)"><path d="M32 0 L449.6 0 L457.1 0.5 L463.6 2 L469.1 4.5 L473.6 8 L477.1 12.5 L479.6 18 L481.1 24.5 L481.6 152.8 L481.1 160.3 L479.6 166.8 L477.1 172.3 L473.6 176.8 L469.1 180.3 L463.6 182.8 L457.1 184.3 L449.6 184.8 L32 184.8 L24.5 184.3 L18 182.8 L12.5 180.3 L8 176.8 L4.5 172.3 L2 166.8 L0.5 160.3 L0 152.8 L0.5 24.5 L2 18 L4.5 12.5 L8 8 L12.5 4.5 L18 2 L24.5 0.5 L32 0" stroke="none" stroke-width="0" fill="#ced4da"></path><path d="M32 0 M32 0 C126.38 0, 220.77 0, 449.6 0 M449.6 0 C470.93 0, 481.6 10.67, 481.6 32 M481.6 32 C481.6 71.62, 481.6 111.24, 481.6 152.8 M481.6 152.8 C481.6 174.13, 470.93 184.8, 449.6 184.8 M449.6 184.8 C319.73 184.8, 189.85 184.8, 32 184.8 M32 184.8 C10.67 184.8, 0 174.13, 0 152.8 M0 152.8 C0 108.78, 0 64.76, 0 32 M0 32 C0 10.67, 10.67 0, 32 0" stroke="#000000" stroke-width="1.5" fill="none" stroke-dasharray="8 9"></path></g><g transform="translate(171.29998779296875 89.89999389648438) rotate(0 79.5 12.5)"><text x="79.5" y="18" font-family="Virgil, Segoe UI Emoji" font-size="20px" fill="#000000" text-anchor="middle" style="white-space: pre;" direction="ltr">Bloggable Ideas</text></g><g stroke-linecap="round"><g transform="translate(249.0909051737542 195.79998779296875) rotate(0 0.6116136624391402 15.5)"><path d="M0 0 C0.2 5.17, 1.02 25.83, 1.22 31 M0 0 C0.2 5.17, 1.02 25.83, 1.22 31" stroke="#000000" stroke-width="1" fill="none"></path></g><g transform="translate(249.0909051737542 195.79998779296875) rotate(0 0.6116136624391402 15.5)"><path d="M-4.65 16.64 C-2.86 21.03, -1.07 25.41, 1.22 31 M-4.65 16.64 C-2.87 21, -1.09 25.35, 1.22 31" stroke="#000000" stroke-width="1" fill="none"></path></g><g transform="translate(249.0909051737542 195.79998779296875) rotate(0 0.6116136624391402 15.5)"><path d="M5.95 16.23 C4.51 20.74, 3.06 25.24, 1.22 31 M5.95 16.23 C4.52 20.71, 3.08 25.19, 1.22 31" stroke="#000000" stroke-width="1" fill="none"></path></g></g><mask></mask><g stroke-linecap="round" transform="translate(88.4000244140625 234.79998779296875) rotate(0 164.79998779296875 29.199996948242188)"><path d="M14.6 0 L318.42 0.23 L321.39 0.91 L325.95 3.65 L328.69 8.21 L329.6 14.6 L329.37 47.22 L328.69 50.19 L325.95 54.75 L321.39 57.49 L315 58.4 L11.18 58.17 L8.21 57.49 L3.65 54.75 L0.91 50.19 L0 43.8 L0 14.6 L0.91 8.21 L3.65 3.65 L8.21 0.91 L14.6 0" stroke="none" stroke-width="0" fill="#40c057"></path><path d="M14.6 0 M14.6 0 C89.06 0, 163.52 0, 315 0 M14.6 0 C124.52 0, 234.43 0, 315 0 M315 0 C324.73 0, 329.6 4.87, 329.6 14.6 M315 0 C324.73 0, 329.6 4.87, 329.6 14.6 M329.6 14.6 C329.6 24.53, 329.6 34.46, 329.6 43.8 M329.6 14.6 C329.6 25.99, 329.6 37.38, 329.6 43.8 M329.6 43.8 C329.6 53.53, 324.73 58.4, 315 58.4 M329.6 43.8 C329.6 53.53, 324.73 58.4, 315 58.4 M315 58.4 C237.79 58.4, 160.59 58.4, 14.6 58.4 M315 58.4 C241.02 58.4, 167.04 58.4, 14.6 58.4 M14.6 58.4 C4.87 58.4, 0 53.53, 0 43.8 M14.6 58.4 C4.87 58.4, 0 53.53, 0 43.8 M0 43.8 C0 33.08, 0 22.36, 0 14.6 M0 43.8 C0 32.79, 0 21.77, 0 14.6 M0 14.6 C0 4.87, 4.87 0, 14.6 0 M0 14.6 C0 4.87, 4.87 0, 14.6 0" stroke="#000000" stroke-width="1" fill="none"></path></g><g transform="translate(206.79998779296875 252.20001220703125) rotate(0 45 12.5)"><text x="0" y="18" font-family="Virgil, Segoe UI Emoji" font-size="20px" fill="#000000" text-anchor="start" style="white-space: pre;" direction="ltr">Valuable?</text></g><g stroke-linecap="round"><g transform="translate(250.5578971446671 298.91064452769064) rotate(0 0.32181432975886537 13.929850864404528)"><path d="M0 0 C0.11 4.64, 0.54 23.22, 0.64 27.86 M0 0 C0.11 4.64, 0.54 23.22, 0.64 27.86" stroke="#000000" stroke-width="1" fill="none"></path></g><g transform="translate(250.5578971446671 298.91064452769064) rotate(0 0.32181432975886537 13.929850864404528)"><path d="M-4.42 14.88 C-3.3 17.75, -2.18 20.63, 0.64 27.86 M-4.42 14.88 C-2.8 19.04, -1.18 23.2, 0.64 27.86" stroke="#000000" stroke-width="1" fill="none"></path></g><g transform="translate(250.5578971446671 298.91064452769064) rotate(0 0.32181432975886537 13.929850864404528)"><path d="M5.11 14.66 C4.12 17.58, 3.13 20.51, 0.64 27.86 M5.11 14.66 C3.68 18.89, 2.25 23.12, 0.64 27.86" stroke="#000000" stroke-width="1" fill="none"></path></g></g><mask></mask><g stroke-linecap="round" transform="translate(136 334.85253888200975) rotate(0 116.5 29.5)"><path d="M14.75 0 L221.71 0.23 L227.24 2.07 L229.31 3.69 L232.08 8.3 L233 14.75 L232.77 47.71 L232.08 50.7 L229.31 55.31 L224.7 58.08 L218.25 59 L11.29 58.77 L5.76 56.93 L2.07 53.24 L0.92 50.7 L0 44.25 L0 14.75 L0.92 8.3 L3.69 3.69 L8.3 0.92 L14.75 0" stroke="none" stroke-width="0" fill="#40c057"></path><path d="M14.75 0 M14.75 0 C89.04 0, 163.34 0, 218.25 0 M14.75 0 C82.42 0, 150.09 0, 218.25 0 M218.25 0 C228.08 0, 233 4.92, 233 14.75 M218.25 0 C228.08 0, 233 4.92, 233 14.75 M233 14.75 C233 22.02, 233 29.29, 233 44.25 M233 14.75 C233 24.43, 233 34.1, 233 44.25 M233 44.25 C233 54.08, 228.08 59, 218.25 59 M233 44.25 C233 54.08, 228.08 59, 218.25 59 M218.25 59 C149.01 59, 79.78 59, 14.75 59 M218.25 59 C144.09 59, 69.93 59, 14.75 59 M14.75 59 C4.92 59, 0 54.08, 0 44.25 M14.75 59 C4.92 59, 0 54.08, 0 44.25 M0 44.25 C0 36.23, 0 28.21, 0 14.75 M0 44.25 C0 35.55, 0 26.84, 0 14.75 M0 14.75 C0 4.92, 4.92 0, 14.75 0 M0 14.75 C0 4.92, 4.92 0, 14.75 0" stroke="#000000" stroke-width="1" fill="none"></path></g><g transform="translate(216.5 351.85253888200975) rotate(0 36 12.5)"><text x="36" y="18" font-family="Virgil, Segoe UI Emoji" font-size="20px" fill="#000000" text-anchor="middle" style="white-space: pre;" direction="ltr">! Exists?</text></g><g stroke-linecap="round"><g transform="translate(252.6997178577244 396.2265178678641) rotate(0 0.03938285353297033 11.9298508644045)"><path d="M0 0 C0.01 3.98, 0.07 19.88, 0.08 23.86 M0 0 C0.01 3.98, 0.07 19.88, 0.08 23.86" stroke="#000000" stroke-width="1" fill="none"></path></g><g transform="translate(252.6997178577244 396.2265178678641) rotate(0 0.03938285353297033 11.9298508644045)"><path d="M-4.04 12.66 C-3.07 15.3, -2.1 17.94, 0.08 23.86 M-4.04 12.66 C-2.55 16.71, -1.06 20.76, 0.08 23.86" stroke="#000000" stroke-width="1" fill="none"></path></g><g transform="translate(252.6997178577244 396.2265178678641) rotate(0 0.03938285353297033 11.9298508644045)"><path d="M4.12 12.64 C3.17 15.28, 2.22 17.92, 0.08 23.86 M4.12 12.64 C2.66 16.69, 1.2 20.75, 0.08 23.86" stroke="#000000" stroke-width="1" fill="none"></path></g></g><mask></mask><g stroke-linecap="round" transform="translate(188.90008544921875 428.1684122221833) rotate(0 66.5 29.5)"><path d="M14.75 0 L118.25 0 L124.7 0.92 L127.24 2.07 L130.93 5.76 L132.77 11.29 L133 44.25 L132.08 50.7 L130.93 53.24 L127.24 56.93 L124.7 58.08 L118.25 59 L14.75 59 L8.3 58.08 L3.69 55.31 L0.92 50.7 L0.23 47.71 L0.23 11.29 L2.07 5.76 L3.69 3.69 L8.3 0.92 L14.75 0" stroke="none" stroke-width="0" fill="#40c057"></path><path d="M14.75 0 M14.75 0 C52.24 0, 89.74 0, 118.25 0 M14.75 0 C50.56 0, 86.37 0, 118.25 0 M118.25 0 C128.08 0, 133 4.92, 133 14.75 M118.25 0 C128.08 0, 133 4.92, 133 14.75 M133 14.75 C133 22.48, 133 30.2, 133 44.25 M133 14.75 C133 22.5, 133 30.25, 133 44.25 M133 44.25 C133 54.08, 128.08 59, 118.25 59 M133 44.25 C133 54.08, 128.08 59, 118.25 59 M118.25 59 C77.44 59, 36.63 59, 14.75 59 M118.25 59 C92.2 59, 66.14 59, 14.75 59 M14.75 59 C4.92 59, 0 54.08, 0 44.25 M14.75 59 C4.92 59, 0 54.08, 0 44.25 M0 44.25 C0 35.55, 0 26.86, 0 14.75 M0 44.25 C0 36.19, 0 28.12, 0 14.75 M0 14.75 C0 4.92, 4.92 0, 14.75 0 M0 14.75 C0 4.92, 4.92 0, 14.75 0" stroke="#000000" stroke-width="1" fill="none"></path></g><g transform="translate(228.40008544921875 445.1684122221833) rotate(0 27 12.5)"><text x="27" y="18" font-family="Virgil, Segoe UI Emoji" font-size="20px" fill="#000000" text-anchor="middle" style="white-space: pre;" direction="ltr">Time?</text></g><g stroke-linecap="round" transform="translate(214.5999755859375 519.3999328613281) rotate(0 37 30)"><path d="M15 0 L62.52 0.23 L65.56 0.94 L70.25 3.75 L73.06 8.44 L74 15 L73.77 48.52 L73.06 51.56 L70.25 56.25 L65.56 59.06 L59 60 L11.48 59.77 L5.86 57.89 L3.75 56.25 L2.11 54.14 L0.23 48.52 L0.23 11.48 L2.11 5.86 L3.75 3.75 L8.44 0.94 L15 0" stroke="none" stroke-width="0" fill="#be4bdb"></path><path d="M15 0 M15 0 C30.94 0, 46.88 0, 59 0 M15 0 C30.22 0, 45.45 0, 59 0 M59 0 C69 0, 74 5, 74 15 M59 0 C69 0, 74 5, 74 15 M74 15 C74 22.86, 74 30.71, 74 45 M74 15 C74 22.88, 74 30.77, 74 45 M74 45 C74 55, 69 60, 59 60 M74 45 C74 55, 69 60, 59 60 M59 60 C41.65 60, 24.3 60, 15 60 M59 60 C47.92 60, 36.85 60, 15 60 M15 60 C5 60, 0 55, 0 45 M15 60 C5 60, 0 55, 0 45 M0 45 C0 36.16, 0 27.31, 0 15 M0 45 C0 36.8, 0 28.6, 0 15 M0 15 C0 5, 5 0, 15 0 M0 15 C0 5, 5 0, 15 0" stroke="#000000" stroke-width="1" fill="none"></path></g><g transform="translate(223.0999755859375 536.8999328613281) rotate(0 28.5 12.5)"><text x="28.5" y="18" font-family="Virgil, Segoe UI Emoji" font-size="20px" fill="#000000" text-anchor="middle" style="white-space: pre;" direction="ltr">Write!</text></g><g stroke-linecap="round"><g transform="translate(251.45686637787185 492.199951171875) rotate(0 0.22954540266033518 12.800033569335938)"><path d="M0 0 C0.08 4.27, 0.38 21.33, 0.46 25.6 M0 0 C0.08 4.27, 0.38 21.33, 0.46 25.6" stroke="#000000" stroke-width="1" fill="none"></path></g><g transform="translate(251.45686637787185 492.199951171875) rotate(0 0.22954540266033518 12.800033569335938)"><path d="M-4.13 13.65 C-2.37 18.24, -0.61 22.82, 0.46 25.6 M-4.13 13.65 C-3.01 16.58, -1.88 19.5, 0.46 25.6" stroke="#000000" stroke-width="1" fill="none"></path></g><g transform="translate(251.45686637787185 492.199951171875) rotate(0 0.22954540266033518 12.800033569335938)"><path d="M4.62 13.49 C3.02 18.14, 1.43 22.78, 0.46 25.6 M4.62 13.49 C3.6 16.46, 2.58 19.42, 0.46 25.6" stroke="#000000" stroke-width="1" fill="none"></path></g></g><mask></mask><g stroke-linecap="round"><g transform="translate(252.07735405475182 581.8499807782571) rotate(0 -0.13323338053100997 11.625032159972648)"><path d="M0 0 C-0.04 3.88, -0.22 19.38, -0.27 23.25 M0 0 C-0.04 3.88, -0.22 19.38, -0.27 23.25" stroke="#000000" stroke-width="1" fill="none"></path></g><g transform="translate(252.07735405475182 581.8499807782571) rotate(0 -0.13323338053100997 11.625032159972648)"><path d="M-4.12 12.28 C-2.7 16.31, -1.29 20.34, -0.27 23.25 M-4.12 12.28 C-2.76 16.14, -1.41 20, -0.27 23.25" stroke="#000000" stroke-width="1" fill="none"></path></g><g transform="translate(252.07735405475182 581.8499807782571) rotate(0 -0.13323338053100997 11.625032159972648)"><path d="M3.83 12.37 C2.33 16.37, 0.82 20.36, -0.27 23.25 M3.83 12.37 C2.39 16.2, 0.95 20.02, -0.27 23.25" stroke="#000000" stroke-width="1" fill="none"></path></g></g><mask></mask><g stroke-linecap="round" transform="translate(237.199951171875 608.300048828125) rotate(0 14.4000244140625 15.20001220703125)"><path d="M0 0 L28.8 0 L28.8 30.4 L0 30.4" stroke="none" stroke-width="0" fill="#ced4da"></path><path d="M0 0 C10.66 0, 21.32 0, 28.8 0 M0 0 C8.92 0, 17.85 0, 28.8 0 M28.8 0 C28.8 6.57, 28.8 13.15, 28.8 30.4 M28.8 0 C28.8 9.48, 28.8 18.95, 28.8 30.4 M28.8 30.4 C17.33 30.4, 5.86 30.4, 0 30.4 M28.8 30.4 C18.78 30.4, 8.75 30.4, 0 30.4 M0 30.4 C0 18.57, 0 6.75, 0 0 M0 30.4 C0 23.86, 0 17.32, 0 0" stroke="#000000" stroke-width="1" fill="none"></path></g><g transform="translate(286.95001220703125 597.5000610351562) rotate(0 53.5 25)"><text x="0" y="17" font-family="Virgil, Segoe UI Emoji" font-size="20px" fill="#000000" text-anchor="start" style="white-space: pre;" direction="ltr">Blog Post </text><text x="0" y="42" font-family="Virgil, Segoe UI Emoji" font-size="20px" fill="#000000" text-anchor="start" style="white-space: pre;" direction="ltr">Volume</text></g></svg>