<svg xmlns="http://www.w3.org/2000/svg" xmlns:xlink="http://www.w3.org/1999/xlink" id="Layer_1" x="0" y="0" version="1.1" viewBox="0 0 64 64" xml:space="preserve" style="enable-background:new 0 0 64 64"><style type="text/css">.st0{fill:#fff}</style><g><path d="M0,64C0,42.9,0,21.7,0,0.6C0,0.1,0.1,0,0.6,0c20.9,0,41.9,0,62.8,0C63.9,0,64,0.1,64,0.6c0,20.9,0,41.9,0,62.8 c0,0.5-0.1,0.6-0.6,0.6C42.3,64,21.1,64,0,64z M58.2,29.9c0-8.6,0-17.2,0-25.8c0-1.8-1-2.9-2.9-2.9c-17.1,0-34.2,0-51.3,0 C2.1,1.2,1,2.2,1,4.1c0,17.2,0,34.4,0,51.6c0,1.9,1,2.9,2.9,2.9c17.1,0,34.2,0,51.3,0c1.9,0,3-1,3-3C58.2,47,58.2,38.4,58.2,29.9z M62.7,34.5c0-8.1,0-16.2,0-24.3c0-1-0.2-1.8-0.8-2.6c-0.2-0.3-0.4-0.4-0.7-0.1c-0.3,0.3-0.6,0.7-1,1c-0.4,0.3-0.6,0.6-0.3,1.1 c0.2,0.2,0.1,0.5,0.1,0.8c0,16,0,32,0,48c0,1.3-0.4,1.7-1.7,1.7c-15.9,0-31.8,0-47.7,0c-0.2,0-0.4,0.1-0.6,0 c-0.9-0.6-1.3,0.1-1.8,0.6C8,61,7.8,61.2,7.6,61.4c-0.3,0.2-0.2,0.4,0,0.6c0.8,0.6,1.7,0.9,2.7,0.9c16,0,32.1,0,48.1,0 c2.6,0,4.2-1.6,4.2-4.2C62.7,50.6,62.7,42.5,62.7,34.5z" class="st0"/><path d="M58.2,29.9c0,8.6,0,17.2,0,25.8c0,1.9-1,3-3,3c-17.1,0-34.2,0-51.3,0c-1.9,0-2.9-1-2.9-2.9C1,38.5,1,21.3,1,4.1 c0-1.9,1-2.9,2.9-2.9c17.1,0,34.2,0,51.3,0c1.9,0,2.9,1,2.9,2.9C58.2,12.6,58.2,21.3,58.2,29.9z M3.7,29.8c0,8.4,0,16.9,0,25.3 c0,0.6,0.1,0.8,0.8,0.8c16.8,0,33.6,0,50.4,0c0.6,0,0.7-0.1,0.7-0.7c0-16.9,0-33.8,0-50.7c0-0.6-0.2-0.7-0.7-0.7 c-16.8,0-33.6,0-50.4,0c-0.6,0-0.8,0.1-0.8,0.7C3.7,13,3.7,21.4,3.7,29.8z"/><path d="M62.7,34.5c0,8.1,0,16.1,0,24.2c0,2.6-1.6,4.2-4.2,4.2c-16,0-32.1,0-48.1,0c-1,0-1.9-0.2-2.7-0.9c-0.3-0.2-0.3-0.4,0-0.6 C7.8,61.2,8,61,8.2,60.8c0.5-0.5,0.9-1.2,1.8-0.6c0.1,0.1,0.4,0,0.6,0c15.9,0,31.8,0,47.7,0c1.3,0,1.7-0.4,1.7-1.7c0-16,0-32,0-48 c0-0.3,0.1-0.6-0.1-0.8c-0.4-0.5-0.1-0.8,0.3-1.1c0.3-0.3,0.7-0.6,1-1c0.3-0.3,0.5-0.3,0.7,0.1c0.6,0.8,0.8,1.6,0.8,2.6 C62.7,18.3,62.7,26.4,62.7,34.5z"/><path d="M3.7,29.8c0-8.4,0-16.9,0-25.3c0-0.6,0.2-0.7,0.8-0.7c16.8,0,33.6,0,50.4,0c0.6,0,0.7,0.1,0.7,0.7 c0,16.9,0,33.8,0,50.7c0,0.6-0.2,0.7-0.7,0.7c-16.8,0-33.6,0-50.4,0c-0.7,0-0.8-0.2-0.8-0.8C3.7,46.7,3.7,38.3,3.7,29.8z M51,27.9 c0-1.8,0-3.5,0-5.3c0-0.4-0.1-0.6-0.6-0.6c-1,0-1.9,0-2.9,0c-0.5,0-0.6,0.1-0.6,0.6c0,2,0,4,0,6c0,1.4,0.3,1.2-1.2,1.2 c-0.5,0-0.6-0.2-0.6-0.6c0-1.9,0-3.8,0-5.7c0-1.7,0.3-1.4-1.5-1.5c-0.5,0-0.6,0.2-0.6,0.6c0,2,0,4,0,6c0,1.3,0.2,1.1-1.1,1.1 c-0.5,0-0.7-0.1-0.7-0.6c0-2.2,0-4.4,0-6.6c0-0.4-0.1-0.6-0.6-0.6c-0.9,0-1.9,0-2.8,0c-0.5,0-0.7,0.2-0.7,0.7c0,3.3,0,6.5,0,9.8 c0,1.3,0,1.4,1.3,1.3c0.5,0,0.7,0.2,0.6,0.7c0,1.3,0,1.3,1.3,1.3c0.7,0,0.8-0.2,0.8-0.8c0-1.1,0-1.2,1.1-1.1c0.6,0,0.8-0.1,0.8-0.8 c0-1.2,0-1.2,1.2-1.2c0.4,0,0.6,0.1,0.6,0.6c0,1.4,0,1.4,1.4,1.4c0.4,0,0.6,0.1,0.6,0.5c0,1.4,0,1.4,1.5,1.4c0.5,0,0.6-0.2,0.6-0.6 c0-1.3,0-1.3,1.3-1.3c0.5,0,0.7-0.2,0.6-0.7C51,31.4,51,29.6,51,27.9z M21.7,13.1c0,2.1,0,4.3,0,6.4c0,0.5,0.1,0.6,0.6,0.6 c0.9,0,1.9,0,2.8,0c0.5,0,0.7-0.1,0.7-0.7c0-2.1,0-4.1,0-6.2c0-1.1,0-1.1,1.1-1.1c0.5,0,0.7,0.1,0.7,0.6c0,1.3,0,1.3,1.3,1.3 c0.5,0,0.6,0.1,0.6,0.6c0,1.4,0,1.4,1.4,1.5c0.4,0,0.5,0.1,0.5,0.5c0,0.9,0,1.9,0,2.8c0,0.4,0.1,0.6,0.6,0.6c1,0,1.9,0,2.9,0 c0.5,0,0.6-0.2,0.6-0.6c0-4.2,0-8.5,0-12.7c0-0.4-0.1-0.6-0.6-0.6c-1,0-1.9,0-2.9,0c-0.5,0-0.6,0.2-0.6,0.6c0,1.6,0,3.1,0,4.7 c0,0.4-0.1,0.5-0.5,0.5c-1.3,0-1.3,0.1-1.3-1.2c0,0,0-0.1,0-0.1c0.1-0.5-0.1-0.6-0.6-0.6c-1.3,0-1.3,0-1.3-1.4 c0-0.5-0.2-0.6-0.6-0.6c-1.3,0-1.3,0-1.3-1.4c0-0.5-0.2-0.6-0.6-0.6c-0.9,0-1.8,0-2.7,0c-0.6,0-0.8,0.1-0.7,0.7 C21.7,9,21.7,11.1,21.7,13.1z M6.1,28.8c0,2.1,0,4.2,0,6.3c0,0.5,0.1,0.6,0.6,0.6c1,0,1.9,0,2.9,0c0.4,0,0.5-0.1,0.5-0.5 c0-1,0-1.9,0-2.9c0-0.3,0.1-0.5,0.4-0.5c1.3-0.1,1.3-0.1,1.4,1.3c0,0,0,0.1,0,0.1c-0.1,0.4,0.2,0.5,0.6,0.5c1.3,0,1.4,0,1.4,1.4 c0,0.5,0.2,0.6,0.6,0.6c1.3,0,2.7,0,4,0c1.4,0,1.4,0,1.4-1.4c0-0.5-0.1-0.7-0.7-0.7c-1.3,0-1.3,0-1.3-1.2c0-0.5-0.2-0.7-0.7-0.7 c-1.3,0-1.3,0-1.3-1.3c0-0.4,0.1-0.5,0.5-0.5c0.9,0,1.9,0,2.8,0c0.5,0,0.6-0.1,0.6-0.6c0-1.6,0-3.1,0-4.7c0-0.6-0.2-0.7-0.7-0.7 c-1.2,0-1.2,0-1.2-1.2c0-0.5-0.1-0.7-0.7-0.7c-3.5,0-7,0-10.5,0c-0.6,0-0.7,0.2-0.7,0.7C6.1,24.7,6.1,26.8,6.1,28.8z M19.9,15.2 c0-1.5,0-2.9,0-4.4c0-0.4,0-0.6-0.5-0.6c-0.4,0-1,0.2-1.3-0.1c-0.3-0.3-0.1-0.9-0.1-1.4c0-0.3-0.1-0.5-0.5-0.5 c-0.5,0-1.1,0.2-1.4-0.1C15.8,7.8,16,7.2,16,6.7c0-0.3-0.1-0.5-0.5-0.5c-1.7,0-3.4,0-5.1,0c-0.4,0-0.5,0.1-0.5,0.5 c0,0.4,0.2,1-0.1,1.3C9.6,8.4,9,8.2,8.6,8.2C8.2,8.2,8,8.4,8,8.8c0,1.3,0,1.3-1.4,1.4c-0.4,0-0.5,0.1-0.5,0.5c0,3,0,6,0,9 c0,0.4,0.1,0.5,0.5,0.5c1,0,2,0,3,0c0.4,0,0.6-0.1,0.6-0.6c0-0.9,0-1.8,0-2.7c0-0.4,0.1-0.6,0.6-0.6c1.5,0,3.1,0,4.6,0 c0.4,0,0.5,0.1,0.5,0.5c0,0.9,0,1.9,0,2.8c0,0.5,0.2,0.6,0.6,0.6c1,0,1.9,0,2.9,0c0.5,0,0.6-0.1,0.6-0.6 C19.9,18.1,19.9,16.6,19.9,15.2z M37.2,13.2c0,2.1,0,4.2,0,6.3c0,0.5,0.1,0.6,0.6,0.6c2.9,0,5.8,0,8.7,0c0.4,0,0.6-0.1,0.6-0.6 c0-0.4-0.2-1,0.1-1.3c0.3-0.3,0.9-0.1,1.3-0.1c0.4,0,0.5-0.1,0.5-0.5c0-0.4-0.2-1,0.1-1.3c0.3-0.3,0.9-0.1,1.3-0.1 c0.4,0,0.6-0.1,0.6-0.6c0-1.6,0-3.2,0-4.9c0-0.6-0.2-0.7-0.7-0.7c-1.2,0-1.2,0-1.2-1.2c0-0.5-0.1-0.7-0.7-0.7c-1.3,0-1.3,0-1.3-1.3 c0-0.5-0.1-0.7-0.6-0.7c-2.9,0-5.8,0-8.7,0c-0.5,0-0.6,0.2-0.6,0.6C37.3,9,37.2,11.1,37.2,13.2z M21.7,44.5c0,2.1,0,4.2,0,6.3 c0,0.5,0.1,0.7,0.7,0.7c4,0,7.9,0,11.9,0c1.2,0,1.2,0,1.3-1.3c0-0.7-0.2-0.8-0.8-0.8c-2.8,0-5.5,0-8.3,0c-0.5,0-0.7-0.1-0.6-0.6 c0-0.9,0-1.8,0-2.7c0-0.5,0.1-0.6,0.6-0.6c1.9,0,3.9,0,5.8,0c1.4,0,1.3,0,1.4-1.4c0-0.6-0.1-0.7-0.7-0.7c-2.1,0-4.3,0-6.4,0 c-0.5,0-0.7-0.1-0.7-0.6c0-0.8,0-1.6,0-2.5c0-0.5,0.1-0.7,0.6-0.7c2.6,0,5.1,0,7.7,0c1.4,0,1.4,0,1.4-1.4c0-0.5-0.1-0.7-0.7-0.7 c-4.1,0-8.3,0-12.4,0c-0.5,0-0.7,0.1-0.7,0.7C21.7,40.3,21.7,42.4,21.7,44.5z M37.2,44.5c0,2,0,4,0,6c0,1.1-0.1,1,1,1 c3.9,0,7.7,0,11.6,0c1.2,0,1.2,0,1.2-1.2c0-0.9,0-0.9-0.9-0.9c-2.7,0-5.4,0-8.1,0c-0.6,0-0.8-0.2-0.7-0.8c0-0.8,0.1-1.6,0-2.4 c0-0.6,0.2-0.7,0.8-0.7c1.9,0,3.8,0,5.8,0c1.3,0,1.3,0,1.3-1.3c0-0.8,0-0.8-0.9-0.8c-2.1,0-4.2,0-6.3,0c-0.5,0-0.7-0.2-0.6-0.7 c0-0.8,0-1.7,0-2.5c0-0.5,0.2-0.6,0.6-0.6c2.6,0,5.1,0,7.7,0c1.5,0,1.4,0,1.4-1.5c0-0.5-0.2-0.6-0.6-0.6c-4.2,0-8.3,0-12.5,0 c-0.5,0-0.7,0.2-0.7,0.7C37.3,40.3,37.2,42.4,37.2,44.5z M28.5,35.7c1.9,0,3.8,0,5.6,0c1.3,0,1.2,0,1.3-1.3c0-0.6-0.2-0.8-0.8-0.8 c-2.8,0-5.5,0-8.3,0c-0.5,0-0.7-0.1-0.7-0.6c0-0.8,0-1.7,0-2.5c0-0.5,0.1-0.6,0.6-0.6c2,0,3.9,0,5.9,0c1.3,0,1.3,0,1.3-1.3 c0-0.6-0.2-0.8-0.8-0.8c-2.1,0-4.3,0-6.4,0c-0.5,0-0.7-0.1-0.6-0.6c0-0.8,0-1.7,0-2.5c0-0.5,0.1-0.6,0.6-0.6c2.6,0,5.1,0,7.7,0 c1.4,0,1.4,0,1.4-1.4c0-0.5-0.1-0.7-0.7-0.7c-4.2,0-8.3,0-12.5,0c-0.5,0-0.6,0.1-0.6,0.6c0,4.2,0,8.4,0,12.6c0,0.5,0.1,0.6,0.6,0.6 C24.3,35.7,26.4,35.7,28.5,35.7z M8,44.5c0,2.1,0,4.2,0,6.3c0,0.5,0.1,0.7,0.7,0.7c3.3,0,6.5,0,9.8,0c1.4,0,1.4,0,1.4-1.4 c0-0.5-0.2-0.7-0.7-0.7c-2.1,0-4.2,0-6.4,0c-0.6,0-0.8-0.1-0.8-0.8c0-3.5,0-6.9,0-10.4c0-0.5-0.1-0.7-0.7-0.7c-0.9,0-1.9,0-2.8,0 c-0.5,0-0.6,0.1-0.6,0.6C8.1,40.3,8,42.4,8,44.5z" class="st0"/><path d="M51,27.9c0,1.8,0,3.5,0,5.3c0,0.5-0.1,0.7-0.6,0.7c-1.3,0-1.3,0-1.3,1.3c0,0.5-0.1,0.6-0.6,0.6c-1.5,0-1.5,0-1.5-1.4 c0-0.4-0.1-0.5-0.6-0.5c-1.4,0-1.4,0-1.4-1.4c0-0.5-0.2-0.6-0.6-0.6c-1.2,0-1.2,0-1.2,1.2c0,0.6-0.2,0.8-0.8,0.8 c-1.2,0-1.2,0-1.1,1.1c0,0.6-0.1,0.8-0.8,0.8c-1.3,0-1.4,0-1.3-1.3c0-0.5-0.1-0.7-0.6-0.7c-1.3,0-1.3,0-1.3-1.3c0-3.3,0-6.5,0-9.8 c0-0.5,0.1-0.7,0.7-0.7c0.9,0,1.9,0,2.8,0c0.5,0,0.6,0.2,0.6,0.6c0,2.2,0,4.4,0,6.6c0,0.5,0.2,0.7,0.7,0.6c1.4,0,1.1,0.1,1.1-1.1 c0-2,0-4,0-6c0-0.5,0.1-0.6,0.6-0.6c1.8,0,1.5-0.2,1.5,1.5c0,1.9,0,3.8,0,5.7c0,0.5,0.1,0.7,0.6,0.6c1.5,0,1.2,0.1,1.2-1.2 c0-2,0-4,0-6c0-0.5,0.2-0.6,0.6-0.6c1,0,1.9,0,2.9,0c0.5,0,0.6,0.2,0.6,0.6C51,24.3,51,26.1,51,27.9z"/><path d="M21.7,13.1c0-2.1,0-4.1,0-6.2c0-0.6,0.2-0.7,0.7-0.7c0.9,0,1.8,0,2.7,0c0.4,0,0.6,0.1,0.6,0.6c0,1.3,0,1.3,1.3,1.4 c0.4,0,0.6,0.1,0.6,0.6c0,1.3,0,1.3,1.3,1.4c0.4,0,0.6,0.1,0.6,0.6c0,0,0,0.1,0,0.1c0,1.3,0,1.3,1.3,1.2c0.4,0,0.5-0.2,0.5-0.5 c0-1.6,0-3.1,0-4.7c0-0.5,0.1-0.7,0.6-0.6c1,0,1.9,0,2.9,0c0.5,0,0.6,0.2,0.6,0.6c0,4.2,0,8.5,0,12.7c0,0.4-0.1,0.6-0.6,0.6 c-1,0-1.9,0-2.9,0c-0.5,0-0.6-0.2-0.6-0.6c0-0.9,0-1.9,0-2.8c0-0.4-0.1-0.5-0.5-0.5c-1.4,0-1.4,0-1.4-1.5c0-0.5-0.1-0.6-0.6-0.6 c-1.3,0-1.3,0-1.3-1.3c0-0.5-0.2-0.7-0.7-0.6c-1.1,0-1.1,0-1.1,1.1c0,2.1,0,4.1,0,6.2c0,0.5-0.2,0.7-0.7,0.7c-0.9,0-1.9,0-2.8,0 c-0.5,0-0.6-0.1-0.6-0.6C21.7,17.4,21.7,15.3,21.7,13.1z"/><path d="M6.1,28.8c0-2.1,0-4.1,0-6.2c0-0.5,0.1-0.7,0.7-0.7c3.5,0,7,0,10.5,0c0.6,0,0.7,0.2,0.7,0.7c0,1.2,0,1.3,1.2,1.2 c0.6,0,0.8,0.1,0.7,0.7c0,1.6,0,3.1,0,4.7c0,0.5-0.2,0.6-0.6,0.6c-0.9,0-1.9,0-2.8,0c-0.4,0-0.5,0.1-0.5,0.5c0,1.3-0.1,1.3,1.3,1.3 c0.5,0,0.7,0.2,0.7,0.7c0,1.2,0,1.3,1.3,1.2c0.5,0,0.7,0.2,0.7,0.7c0,1.4,0,1.4-1.4,1.4c-1.3,0-2.7,0-4,0c-0.4,0-0.6-0.1-0.6-0.6 c0-1.3,0-1.4-1.4-1.4c-0.4,0-0.6-0.1-0.6-0.5c0,0,0-0.1,0-0.1c0-1.4,0-1.4-1.4-1.3c-0.4,0-0.4,0.2-0.4,0.5c0,1,0,1.9,0,2.9 c0,0.4-0.1,0.5-0.5,0.5c-1,0-1.9,0-2.9,0c-0.5,0-0.6-0.1-0.6-0.6C6.1,33,6.1,30.9,6.1,28.8z M13.1,24c-0.8,0-1.6,0-2.5,0 c-0.3,0-0.5,0.1-0.4,0.4c0,1.6,0,3.2,0,4.8c0,0.3,0.1,0.5,0.4,0.5c0.9,0,1.9,0,2.8,0c0.3,0,0.4-0.1,0.5-0.5c0-0.5-0.2-1,0.1-1.4 c0.3-0.3,0.9-0.1,1.4-0.1c0.3,0,0.5-0.1,0.5-0.5c0-0.9,0-1.9,0-2.8c0-0.3-0.1-0.5-0.4-0.4C14.6,24.1,13.8,24,13.1,24z"/><path d="M19.9,15.2c0,1.5,0,2.9,0,4.4c0,0.4-0.1,0.6-0.6,0.6c-1,0-1.9,0-2.9,0c-0.5,0-0.7-0.1-0.6-0.6c0-0.9,0-1.9,0-2.8 c0-0.4-0.1-0.5-0.5-0.5c-1.5,0-3.1,0-4.6,0c-0.5,0-0.6,0.2-0.6,0.6c0,0.9,0,1.8,0,2.7c0,0.5-0.2,0.6-0.6,0.6c-1,0-2,0-3,0 c-0.4,0-0.5-0.1-0.5-0.5c0-3,0-6,0-9c0-0.4,0.2-0.5,0.5-0.5C8,10.1,8,10.1,8,8.8c0-0.4,0.1-0.6,0.6-0.6c0.4,0,1,0.2,1.3-0.1 C10.2,7.8,10,7.2,10,6.7c0-0.4,0.1-0.5,0.5-0.5c1.7,0,3.4,0,5.1,0c0.3,0,0.4,0.1,0.5,0.5c0,0.5-0.2,1.1,0.1,1.4 c0.3,0.3,0.9,0.1,1.4,0.1c0.3,0,0.4,0.1,0.5,0.5c0,0.5-0.2,1.1,0.1,1.4c0.3,0.3,0.9,0.1,1.3,0.1c0.5,0,0.5,0.2,0.5,0.6 C19.9,12.2,19.9,13.7,19.9,15.2z M13,14c0.8,0,1.5,0,2.3,0c0.4,0,0.6-0.1,0.6-0.5c0-0.6,0-1.3,0-1.9c0-1.3,0-1.3-1.2-1.2 c-0.6,0-0.7-0.2-0.7-0.7c0-1.3,0-1.3-1.3-1.2c-0.4,0-0.5,0.1-0.5,0.5c0,0.4,0.2,1-0.1,1.3c-0.3,0.3-0.9,0.1-1.4,0.1 c-0.4,0-0.5,0.1-0.5,0.5c0,0.9,0,1.9,0,2.8c0,0.4,0.2,0.5,0.5,0.5C11.5,14,12.2,14,13,14z"/><path d="M37.2,13.2c0-2.1,0-4.2,0-6.4c0-0.5,0.1-0.6,0.6-0.6c2.9,0,5.8,0,8.7,0c0.5,0,0.6,0.2,0.6,0.7c0,1.3,0,1.3,1.3,1.3 c0.6,0,0.7,0.2,0.7,0.7c0,1.2,0,1.2,1.2,1.2c0.6,0,0.8,0.1,0.7,0.7c0,1.6,0,3.2,0,4.9c0,0.4-0.1,0.6-0.6,0.6c-0.4,0-1-0.2-1.3,0.1 c-0.3,0.3-0.1,0.9-0.1,1.3c0,0.4-0.1,0.5-0.5,0.5c-0.4,0-1-0.2-1.3,0.1c-0.3,0.3-0.1,0.9-0.1,1.3c0,0.4-0.1,0.6-0.6,0.6 c-2.9,0-5.8,0-8.7,0c-0.5,0-0.6-0.2-0.6-0.6C37.3,17.4,37.2,15.3,37.2,13.2z M41.3,13.2c0,1.4,0,2.9,0,4.3c0,0.4,0.1,0.5,0.5,0.5 c0.9,0,1.8,0,2.7,0c0.4,0,0.5-0.1,0.5-0.5c0-1.4,0-1.4,1.4-1.4c0.4,0,0.5-0.1,0.5-0.5c0-1.6,0-3.2,0-4.8c0-0.4-0.1-0.5-0.5-0.5 c-1.4,0-1.4,0-1.4-1.4c0-0.4-0.2-0.5-0.6-0.5c-0.8,0-1.7,0-2.5,0c-0.5,0-0.7,0.1-0.7,0.6C41.3,10.4,41.3,11.8,41.3,13.2z"/><path d="M21.7,44.5c0-2.1,0-4.2,0-6.3c0-0.5,0.2-0.7,0.7-0.7c4.1,0,8.3,0,12.4,0c0.6,0,0.7,0.2,0.7,0.7c0,1.4,0,1.4-1.4,1.4 c-2.6,0-5.1,0-7.7,0c-0.5,0-0.7,0.2-0.6,0.7c0,0.8,0,1.6,0,2.5c0,0.5,0.2,0.6,0.7,0.6c2.1,0,4.3,0,6.4,0c0.6,0,0.7,0.2,0.7,0.7 c0,1.4,0,1.4-1.4,1.4c-1.9,0-3.9,0-5.8,0c-0.5,0-0.6,0.1-0.6,0.6c0,0.9,0,1.8,0,2.7c0,0.5,0.2,0.6,0.6,0.6c2.8,0,5.5,0,8.3,0 c0.7,0,0.9,0.2,0.8,0.8c0,1.3,0,1.3-1.3,1.3c-4,0-7.9,0-11.9,0c-0.5,0-0.7-0.2-0.7-0.7C21.7,48.7,21.7,46.6,21.7,44.5z"/><path d="M37.2,44.5c0-2.1,0-4.2,0-6.3c0-0.5,0.1-0.7,0.7-0.7c4.2,0,8.3,0,12.5,0c0.5,0,0.6,0.1,0.6,0.6c0,1.5,0,1.5-1.4,1.5 c-2.6,0-5.1,0-7.7,0c-0.4,0-0.6,0.1-0.6,0.6c0,0.8,0,1.7,0,2.5c0,0.5,0.1,0.7,0.6,0.7c2.1,0,4.2,0,6.3,0c0.9,0,0.9,0,0.9,0.8 c0,1.3,0,1.3-1.3,1.3c-1.9,0-3.8,0-5.8,0c-0.6,0-0.8,0.1-0.8,0.7c0.1,0.8,0,1.6,0,2.4c0,0.6,0.1,0.8,0.7,0.8c2.7,0,5.4,0,8.1,0 c0.9,0,0.9,0,0.9,0.9c0,1.2,0,1.2-1.2,1.2c-3.9,0-7.7,0-11.6,0c-1.1,0-0.9,0.1-1-1C37.2,48.5,37.2,46.5,37.2,44.5z"/><path d="M28.5,35.7c-2.1,0-4.2,0-6.3,0c-0.5,0-0.6-0.1-0.6-0.6c0-4.2,0-8.4,0-12.6c0-0.5,0.2-0.6,0.6-0.6c4.2,0,8.3,0,12.5,0 c0.5,0,0.7,0.2,0.7,0.7c0,1.4,0,1.4-1.4,1.4c-2.6,0-5.1,0-7.7,0c-0.5,0-0.6,0.1-0.6,0.6c0,0.8,0,1.7,0,2.5c0,0.5,0.2,0.6,0.6,0.6 c2.1,0,4.3,0,6.4,0c0.6,0,0.8,0.2,0.8,0.8c0,1.3,0,1.3-1.3,1.3c-2,0-3.9,0-5.9,0c-0.5,0-0.6,0.1-0.6,0.6c0,0.8,0,1.7,0,2.5 c0,0.5,0.2,0.7,0.7,0.6c2.8,0,5.5,0,8.3,0c0.6,0,0.8,0.2,0.8,0.8c0,1.3,0,1.3-1.3,1.3C32.3,35.7,30.4,35.7,28.5,35.7z"/><path d="M8,44.5c0-2.1,0-4.2,0-6.4c0-0.5,0.2-0.6,0.6-0.6c0.9,0,1.9,0,2.8,0c0.5,0,0.7,0.2,0.7,0.7c0,3.5,0,6.9,0,10.4 c0,0.6,0.2,0.8,0.8,0.8c2.1,0,4.2,0,6.4,0c0.5,0,0.7,0.2,0.7,0.7c0,1.4,0,1.4-1.4,1.4c-3.3,0-6.5,0-9.8,0c-0.5,0-0.7-0.1-0.7-0.7 C8.1,48.7,8,46.6,8,44.5z"/><path d="M13.1,24c0.8,0,1.6,0,2.3,0c0.3,0,0.5,0.1,0.4,0.4c0,0.9,0,1.9,0,2.8c0,0.3-0.1,0.4-0.5,0.5 c-0.5,0-1-0.2-1.4,0.1c-0.3,0.3-0.1,0.9-0.1,1.4c0,0.3-0.1,0.5-0.5,0.5c-0.9,0-1.9,0-2.8,0c-0.3,0-0.4-0.1-0.4-0.5 c0-1.6,0-3.2,0-4.8c0-0.3,0.1-0.5,0.4-0.4C11.4,24.1,12.2,24,13.1,24z" class="st0"/><path d="M13,14c-0.8,0-1.6,0-2.3,0c-0.4,0-0.5-0.1-0.5-0.5c0-0.9,0-1.9,0-2.8c0-0.4,0.1-0.5,0.5-0.5 c0.5,0,1,0.2,1.4-0.1c0.3-0.3,0.1-0.9,0.1-1.3c0-0.4,0.1-0.5,0.5-0.5c1.3,0,1.3,0,1.3,1.2c0,0.6,0.1,0.7,0.7,0.7 c1.2,0,1.2,0,1.2,1.2c0,0.6,0,1.3,0,1.9c0,0.4-0.2,0.6-0.6,0.5C14.5,14,13.8,14,13,14z" class="st0"/><path d="M41.3,13.2c0-1.4,0-2.8,0-4.2c0-0.5,0.2-0.7,0.7-0.6c0.8,0,1.7,0,2.5,0c0.4,0,0.6,0.1,0.6,0.5 c0,1.4,0,1.4,1.4,1.4c0.4,0,0.5,0.1,0.5,0.5c0,1.6,0,3.2,0,4.8c0,0.4-0.1,0.5-0.5,0.5c-1.4,0-1.4,0.1-1.4,1.4 c0,0.4-0.1,0.5-0.5,0.5c-0.9,0-1.8,0-2.7,0c-0.4,0-0.5-0.1-0.5-0.5C41.3,16.1,41.3,14.6,41.3,13.2z" class="st0"/></g></svg>